<svg id="레이어_1" data-name="레이어 1" xmlns="http://www.w3.org/2000/svg" viewBox="0 0 61.37 64.77"><defs><style>.cls-1{fill:#040000;}.cls-2{fill:#e61f77;}.cls-3{fill:#efea3a;}.cls-4,.cls-5{fill:none;stroke:#fff;stroke-miterlimit:10;}.cls-5{stroke-linecap:round;}</style></defs><path class="cls-1" d="M10.47,36.08S6.36,37.2,9.28,40.53,13.4,41,13.4,41Z"/><path class="cls-2" d="M49.13,18.35s8.8,20.09-6.54,30.42S38.5,22.08,38.5,22.08Z"/><path class="cls-2" d="M16.07,47.68c0,2-3.44,3.65-5.39,3.65S6,49.53,6,47.58s3.18-5.46,5.13-5.46S16.07,45.73,16.07,47.68Z"/><path class="cls-1" d="M12.63,17.94c-5.49,6.3-5.08,10.37,1.2,33.41,3.55,13,40.07,7.28,32.89-23.35C41.77,6.88,18.43,11.29,12.63,17.94Z"/><path class="cls-3" d="M29.73,46.19c.14-1.51,1.54-.11,5-1.45s.81,2.66-1.67,2.87C30.87,47.79,29.66,47,29.73,46.19Z"/><path class="cls-3" d="M23,47.63c-.48-1.38-1.53.18-5.27-.4s-.18,2.62,2.29,2.34C22.22,49.32,23.22,48.34,23,47.63Z"/><path class="cls-2" d="M23.67,20.75S18,17.43,18.43,26,7.82,41.72,4.88,32.13,11.21.81,28.94,8.48c0,0,11.64-3.7,18,5.63S47.57,30,42.08,31.75s-9-11-13.14-12.79A3.73,3.73,0,0,0,23.67,20.75Z"/><ellipse class="cls-4" cx="19.47" cy="42.47" rx="3.83" ry="4.93"/><ellipse class="cls-4" cx="31.99" cy="40.34" rx="4.11" ry="4.93"/><line class="cls-4" x1="23.28" y1="41.98" x2="27.89" y2="40.73"/><path class="cls-1" d="M44.25,36.7s8.21-3.94,4.56-8.18c-2.46-2.86-4.88,3.72-4.88,3.72Z"/><path class="cls-2" d="M57,42.22c0,2-3.44,3.65-5.39,3.65S47,44.07,47,42.12s3.17-5.46,5.12-5.46S57,40.27,57,42.22Z"/><path class="cls-2" d="M29.29,9.7c-.44,0-18.44,3.64-13.55,13.42A36.83,36.83,0,0,1,18,29.27s3.72,5.8,10.91,1.2S36.84,24,36.84,24Z"/><path class="cls-5" d="M24.1,50.44s.38,0,5.9-.85"/></svg>